<?xml version="1.0" encoding="UTF-8" standalone="no"?>
<!-- Created with Inkscape (http://www.inkscape.org/) -->

<svg
   width="31.062084mm"
   height="31.062084mm"
   viewBox="0 0 31.062084 31.062084"
   version="1.1"
   id="svg173"
   inkscape:version="1.1.1 (3bf5ae0d25, 2021-09-20)"
   sodipodi:docname="syncthing.svg"
   xmlns:inkscape="http://www.inkscape.org/namespaces/inkscape"
   xmlns:sodipodi="http://sodipodi.sourceforge.net/DTD/sodipodi-0.dtd"
   xmlns="http://www.w3.org/2000/svg"
   xmlns:svg="http://www.w3.org/2000/svg">
  <sodipodi:namedview
     id="namedview175"
     pagecolor="#505050"
     bordercolor="#eeeeee"
     borderopacity="1"
     inkscape:pageshadow="0"
     inkscape:pageopacity="0"
     inkscape:pagecheckerboard="true"
     inkscape:document-units="mm"
     showgrid="false"
     inkscape:zoom="0.77771465"
     inkscape:cx="255.87791"
     inkscape:cy="147.86915"
     inkscape:window-width="1908"
     inkscape:window-height="977"
     inkscape:window-x="1924"
     inkscape:window-y="1062"
     inkscape:window-maximized="0"
     inkscape:current-layer="layer1"
     fit-margin-top="0"
     fit-margin-left="0"
     fit-margin-right="0"
     fit-margin-bottom="0" />
  <defs
     id="defs170">
    <linearGradient
       id="SVGID_1_"
       gradientUnits="userSpaceOnUse"
       x1="58.666"
       y1="117.332"
       x2="58.666"
       y2="-9.094947e-13">
      <stop
         offset="0"
         style="stop-color:#0882C8"
         id="stop2" />
      <stop
         offset="1"
         style="stop-color:#26B6DB"
         id="stop4" />
    </linearGradient>
  </defs>
  <g
     inkscape:label="Layer 1"
     inkscape:groupmode="layer"
     id="layer1"
     transform="translate(-0.5585717,-0.46488252)">
    <g
       id="g33"
       transform="matrix(0.26458333,0,0,0.26458333,0.5585717,0.46488252)">
      <linearGradient
         id="linearGradient130"
         gradientUnits="userSpaceOnUse"
         x1="58.666"
         y1="117.332"
         x2="58.666"
         y2="-9.094947e-13">
        <stop
           offset="0"
           style="stop-color:#0882C8"
           id="stop126" />
        <stop
           offset="1"
           style="stop-color:#26B6DB"
           id="stop128" />
      </linearGradient>
      <circle
         fill="url(#SVGID_1_)"
         cx="58.700001"
         cy="58.700001"
         r="58.700001"
         id="circle7"
         style="fill:url(#SVGID_1_)" />
      <g
         id="g31">
        <circle
           fill="none"
           stroke="#ffffff"
           stroke-width="6"
           stroke-miterlimit="10"
           cx="58.700001"
           cy="58.5"
           r="43.700001"
           id="circle9" />
        <g
           id="g15">
          <path
             fill="#ffffff"
             d="m 94.7,47.8 c 4.7,1.6 9.8,-0.9 11.4,-5.6 1.6,-4.7 -0.9,-9.8 -5.6,-11.4 -4.7,-1.6 -9.8,0.9 -11.4,5.6 -1.6,4.7 0.9,9.8 5.6,11.4 z"
             id="path11" />
          <line
             fill="none"
             stroke="#ffffff"
             stroke-width="6"
             stroke-miterlimit="10"
             x1="97.599998"
             y1="39.400002"
             x2="67.5"
             y2="64.400002"
             id="line13" />
        </g>
        <g
           id="g21">
          <path
             fill="#ffffff"
             d="m 77.6,91 c -0.4,4.9 3.2,9.3 8.2,9.8 5,0.4 9.3,-3.2 9.8,-8.2 C 96,87.7 92.4,83.3 87.4,82.8 82.4,82.4 78,86 77.6,91 Z"
             id="path17" />
          <line
             fill="none"
             stroke="#ffffff"
             stroke-width="6"
             stroke-miterlimit="10"
             x1="86.5"
             y1="91.800003"
             x2="67.5"
             y2="64.400002"
             id="line19" />
        </g>
        <path
           fill="#ffffff"
           d="m 60,69.3 c 2.7,4.2 8.3,5.4 12.4,2.7 4.2,-2.7 5.4,-8.3 2.7,-12.4 -2.7,-4.2 -8.3,-5.4 -12.4,-2.7 -4.2,2.6 -5.4,8.2 -2.7,12.4 z"
           id="path23" />
        <g
           id="g29">
          <path
             fill="#ffffff"
             d="m 21.2,61.4 c -4.3,-2.5 -9.8,-1.1 -12.3,3.1 -2.5,4.3 -1.1,9.8 3.1,12.3 4.3,2.5 9.8,1.1 12.3,-3.1 2.5,-4.2 1.1,-9.7 -3.1,-12.3 z"
             id="path25" />
          <line
             fill="none"
             stroke="#ffffff"
             stroke-width="6"
             stroke-miterlimit="10"
             x1="16.6"
             y1="69.099998"
             x2="67.5"
             y2="64.400002"
             id="line27" />
        </g>
      </g>
    </g>
  </g>
</svg>
